<svg width="455" height="86" viewBox="0 0 455 86" fill="none" xmlns="http://www.w3.org/2000/svg">
<path fill-rule="evenodd" clip-rule="evenodd" d="M70.7365 43.0023C70.7365 52.2254 76.8109 58.7852 85.1843 58.7852C93.6506 58.7852 99.7251 52.2254 99.7251 43.0023C99.7251 33.8745 93.6506 27.2171 85.1843 27.2171C76.8109 27.2171 70.7365 33.8745 70.7365 43.0023ZM109.388 43.0023C109.388 57.0736 99.2649 67.2485 85.2765 67.2485C71.2889 67.2485 61.0738 57.0736 61.0738 43.0023C61.0738 28.9303 71.2889 18.7553 85.2765 18.7553C99.2649 18.7553 109.388 28.9303 109.388 43.0023Z" fill="#14C8BD"/>
<path fill-rule="evenodd" clip-rule="evenodd" d="M152.879 18.7622C150.368 18.9021 148.486 21.2978 148.486 23.9717V26.2411V28.628V46.7293C148.486 54.1827 144.024 59.021 137.287 59.021C130.549 59.021 126.178 54.1827 126.178 46.7293V28.628V28.3427V23.9717C126.178 21.2978 124.296 18.9021 121.785 18.7622C119.107 18.6136 116.891 20.8774 116.891 23.692V28.3427V28.628V46.7293C116.891 58.924 125.177 67.2485 137.378 67.2485C149.487 67.2485 157.773 58.924 157.773 46.7293V28.628V26.2411V23.692C157.773 20.8774 155.557 18.6136 152.879 18.7622Z" fill="#14C8BD"/>
<path fill-rule="evenodd" clip-rule="evenodd" d="M425.261 20.0189V13.6973C425.261 5.65148 432.233 0 442.161 0C442.886 0 447.15 0.0369686 450.597 0.134503C453.05 0.203721 454.993 2.02698 454.993 4.25139V4.44567C454.993 6.79986 452.821 8.68212 450.227 8.55941C446.891 8.40131 442.963 8.33288 442.267 8.33288C438.677 8.33288 436.036 10.4401 436.036 13.6973V20.0189H450.451C452.959 20.0189 454.993 21.8634 454.993 24.1374C454.993 26.4129 452.959 28.2566 450.451 28.2566H436.036V62.4321C436.036 65.0341 433.708 67.1444 430.839 67.1444H430.458C427.588 67.1444 425.261 65.0341 425.261 62.4321V28.2566" fill="#14C8BD"/>
<path fill-rule="evenodd" clip-rule="evenodd" d="M393.403 27.511C400.54 25.3318 407.516 28.2198 410.927 34.3629L382.647 43.0005C382.318 35.9169 386.355 29.6638 393.403 27.511ZM414.869 47.1683C413.5 47.5866 412.323 48.5635 411.77 49.9137C410.173 53.8126 406.8 57.0802 402.371 58.4328C394.883 60.7204 387.75 57.2886 384.454 50.2251L400.939 45.189L418.927 39.6958C420.436 39.2349 421.362 37.615 420.916 36.0664L420.908 36.0393C416.913 22.5941 404.504 15.8529 391.112 19.9432C377.721 24.0342 370.748 36.6947 374.629 50.0764C378.51 63.4573 391.094 70.1451 404.486 66.0548C414.228 63.0785 421.065 54.5687 421.875 45.0279L414.869 47.1683Z" fill="#14C8BD"/>
<path fill-rule="evenodd" clip-rule="evenodd" d="M203.984 43.1806C203.984 33.8889 197.875 27.2793 189.453 27.2793C180.938 27.2793 174.829 33.8889 174.829 43.1806C174.829 52.3747 180.938 59.0794 189.453 59.0794C197.875 59.0794 203.984 52.3747 203.984 43.1806ZM213.703 43.4C213.729 55.2968 205.423 65.8179 194.027 67.3785C187.796 68.2311 182.25 66.6242 178.117 63.448C176.752 62.4003 174.829 63.3347 174.829 65.0927V81.1859C174.829 83.7894 172.789 85.8997 170.274 85.8997H169.943C167.428 85.8997 165.389 83.7894 165.389 81.1859V43.1806C165.389 29.0051 175.477 18.7553 189.546 18.7553C203.592 18.7553 213.672 28.9728 213.703 43.4Z" fill="#14C8BD"/>
<path fill-rule="evenodd" clip-rule="evenodd" d="M260.08 43.9172C260.08 34.7893 253.97 28.132 245.455 28.132C237.034 28.132 230.925 34.7893 230.925 43.9172C230.925 53.1403 237.034 59.7 245.455 59.7C253.97 59.7 260.08 53.1403 260.08 43.9172ZM269.52 43.9172V62.6297C269.52 65.2127 267.481 67.3076 264.967 67.3076H264.634C262.119 67.3076 260.08 65.2127 260.08 62.6297V60.8416C256.377 65.3103 250.269 68.1634 243.327 68.1634C230.554 68.1634 221.206 57.9885 221.206 43.9172C221.206 29.8452 231.295 19.6702 245.363 19.6702C259.431 19.6702 269.52 29.8452 269.52 43.9172Z" fill="#14C8BD"/>
<path fill-rule="evenodd" clip-rule="evenodd" d="M302.137 59.7C293.353 59.7 287.05 53.1403 287.05 43.9172C287.05 34.7893 293.353 28.132 302.137 28.132C305.34 28.132 308.282 29.1135 310.684 30.7907C312.429 32.008 314.76 31.9526 316.316 30.5026L316.514 30.3176C318.622 28.3546 318.287 24.9205 315.828 23.4151C311.938 21.0335 307.244 19.6702 302.137 19.6702C287.623 19.6702 277.024 29.8452 277.024 43.9172C277.024 57.9893 287.623 68.1634 302.137 68.1634C306.64 68.1634 310.816 67.1093 314.406 65.233C316.969 63.8939 317.441 60.4215 315.415 58.3633C313.982 56.9086 311.712 56.5151 309.962 57.57C307.71 58.9278 305.043 59.7 302.137 59.7Z" fill="#14C8BD"/>
<path fill-rule="evenodd" clip-rule="evenodd" d="M365.441 57.5473H356.553V41.6297C356.553 35.0222 352.411 30.6735 346.026 30.6735C339.467 30.6735 335.239 35.0222 335.239 41.6297V58.9085H326.436V16.0107H335.239V30.7573C338 26.3248 342.746 23.8159 348.614 23.8159C358.365 23.8159 365.441 30.5059 365.441 40.4581V57.5473Z" fill="#14C8BD"/>
<path fill-rule="evenodd" clip-rule="evenodd" d="M335.207 62.1932V58.5532H326.436V62.4528C326.436 64.6763 328.297 66.4667 330.547 66.3473C331.567 66.2932 332.944 66.2172 333.848 65.448C334.74 64.689 335.207 63.1966 335.207 62.1932Z" fill="#14C8BD"/>
<path fill-rule="evenodd" clip-rule="evenodd" d="M365.422 62.5556V57.1809H356.633V62.5556C356.633 64.7791 358.866 66.5213 361.115 66.4019C362.136 66.3478 363.188 66.5145 364.092 65.7453C364.984 64.9863 365.422 63.559 365.422 62.5556Z" fill="#14C8BD"/>
<path fill-rule="evenodd" clip-rule="evenodd" d="M330.607 8.24029C328.224 8.36517 326.436 10.5031 326.436 12.8902V17.0476H335.251V12.6404C335.251 10.1278 333.149 8.10688 330.607 8.24029Z" fill="#14C8BD"/>
<path fill-rule="evenodd" clip-rule="evenodd" d="M2.12586 33.2818C1.46203 33.2818 0.92378 32.6829 0.92378 31.9443C0.92378 31.2056 1.46203 30.6067 2.12586 30.6067C2.7897 30.6067 3.32795 31.2056 3.32795 31.9443C3.32795 32.6829 2.7897 33.2818 2.12586 33.2818ZM19.5097 29.7291H1.82385L1.99653 29.7483C0.95742 29.7973 0.123138 30.7531 0.123138 31.9451C0.123138 33.1513 0.976109 34.1245 2.03317 34.1494L1.94645 34.1594H2.11315H2.1139H2.11465H15.9633L16.0029 34.1345C16.9523 32.46 18.1529 31.0035 19.5381 29.8231L19.5097 29.7291Z" fill="#14C8BD"/>
<path fill-rule="evenodd" clip-rule="evenodd" d="M2.12586 41.2262C1.46203 41.2262 0.92378 40.6272 0.92378 39.8886C0.92378 39.1499 1.46203 38.551 2.12586 38.551C2.7897 38.551 3.32795 39.1499 3.32795 39.8886C3.32795 40.6272 2.7897 41.2262 2.12586 41.2262ZM14.1751 37.6734H2.0698V37.6751C0.994798 37.6776 0.123138 38.6675 0.123138 39.8894C0.123138 41.1105 0.994798 42.0996 2.0698 42.1029V42.1037H13.5838L13.6309 42.0522C13.672 40.5582 13.8679 39.1117 14.22 37.7408L14.1751 37.6734Z" fill="#14C8BD"/>
<path fill-rule="evenodd" clip-rule="evenodd" d="M27.9664 18.5159C24.6271 18.5159 21.5322 19.1066 18.7423 20.172C18.4926 20.2421 18.1681 20.3619 17.7308 20.557C17.452 20.6821 17.2172 20.8034 16.9675 20.9262C16.8621 20.9775 16.756 21.0272 16.6521 21.0792C16.4749 21.1696 16.3127 21.257 16.1512 21.3459C15.9052 21.4762 15.6548 21.5998 15.4148 21.7369C15.0284 21.9743 14.6434 22.2342 14.2771 22.5168L13.7007 22.9922C13.5676 23.1127 13.4375 23.2348 13.3142 23.3606L13.2021 23.4917C13.0817 23.6228 13.0062 23.714 12.9688 23.7652L12.8941 23.8526C12.3693 24.3582 12.1188 25.1501 12.3902 25.9804C12.6556 26.7926 13.4547 27.308 14.304 27.308H14.3077H18.047H24.5912L24.6017 27.3065C25.6782 27.0322 26.807 26.8966 27.9627 26.8966C35.8914 26.8966 42.3189 33.7244 42.3189 42.1457C42.3189 50.5686 35.8914 57.3963 27.9627 57.3963C24.2839 57.3963 20.9393 55.9135 18.3991 53.4957L18.367 53.4829H6.16897C5.0693 53.4829 4.17746 54.3818 4.17746 55.4901V78.3988C4.17746 80.8913 6.18243 82.9128 8.65612 82.9128H8.99476C11.4685 82.9128 13.4734 80.8913 13.4734 78.3988V62.9531C13.4727 61.2683 15.3655 60.3725 16.7066 61.3776C21.6376 65.0688 28.6116 66.5523 36.3519 64.307C44.5115 61.9412 50.3298 54.8105 51.4736 46.3311C53.6318 30.3293 43.154 18.5159 27.9664 18.5159Z" fill="#14C8BD"/>
<path fill-rule="evenodd" clip-rule="evenodd" d="M2.12588 49.1959C1.46204 49.1959 0.923796 48.5842 0.923796 47.8316C0.923796 47.0774 1.46204 46.4674 2.12588 46.4674C2.78972 46.4674 3.32796 47.0774 3.32796 47.8316C3.32796 48.5842 2.78972 49.1959 2.12588 49.1959ZM14.0039 45.6606L13.9576 45.6182H9.39669L9.38697 45.6165H2.18643C1.21983 45.6165 0.319764 46.3538 0.153805 47.4338C-0.0599981 48.8319 0.881933 50.0468 2.0743 50.0468H9.38697L9.38772 50.0459H15.3398L15.3817 49.9679C14.7672 48.6317 14.3044 47.1843 14.0039 45.6606Z" fill="#14C8BD"/>
</svg>
